<?xml version="1.0" encoding="UTF-8" standalone="no"?>
<!DOCTYPE svg PUBLIC "-//W3C//DTD SVG 1.1//EN" "http://www.w3.org/Graphics/SVG/1.1/DTD/svg11.dtd">
<!--
2019-3-27: Created with FontForge (http://fontforge.org)
-->
<svg xmlns="http://www.w3.org/2000/svg" xmlns:xlink="http://www.w3.org/1999/xlink" version="1.1">
<metadata>
Created by FontForge 20190112 at Wed Mar 27 14:24:33 2019
 By Patrick Salij

</metadata>
<defs>
<font id="icons" horiz-adv-x="512">
  <font-face font-family="icons" font-weight="400" font-stretch="normal" units-per-em="512" panose-1="2 0 5 3 0 0 0 0 0 0" ascent="448" descent="-64" bbox="-366.201 -64.3549 512.004 448.005" underline-thickness="25.6" underline-position="-51.2" unicode-range="U+0020-F11E"/>
    <missing-glyph/>
    <glyph glyph-name="space" unicode=" " horiz-adv-x="200"/>
    <glyph glyph-name="app" unicode="" d="M393.891 168.728h-18.6182v242.036c0 10.3115 -8.30566 18.6182 -18.6182 18.6182h-223.418c-10.3115 0 -18.6182 -8.30664 -18.6182 -18.6182v-390.981c0 -10.3125 8.30664 -18.6182 18.6182 -18.6182h27.9277v-18.6182h-27.9277 c-20.5947 0 -37.2363 16.6416 -37.2363 37.2363v390.981c0 20.5947 16.6416 37.2363 37.2363 37.2363h223.418c20.5947 0 37.2363 -16.6416 37.2363 -37.2363v-242.036zM208 390.682v9.31836h74.4707v-9.31836h-74.4707zM245.188 -44.2891 c4.35645 -6.53418 11.5654 -10.4014 19.4004 -10.4014h87.4121c28.2422 0 51.2002 22.957 51.2002 51.1992v107.055c0 10.2764 -8.34277 18.6182 -18.6182 18.6182c-10.2764 0 -18.6182 -8.3418 -18.6182 -18.6182v-32.582h-9.30957v51.2002 c0 10.2764 -8.3418 18.6182 -18.6182 18.6182c-10.2754 0 -18.6182 -8.3418 -18.6182 -18.6182v-41.8906h-9.30859v69.8184c0 10.2754 -8.34277 18.6182 -18.6182 18.6182c-10.2764 0 -18.6182 -8.34277 -18.6182 -18.6182v-60.5098h-9.30957v144.291 c0 10.2764 -8.3418 18.6182 -18.6182 18.6182c-10.2754 0 -18.6182 -8.3418 -18.6182 -18.6182v-144.291c0 -4.14648 -5.01367 -6.22266 -7.94531 -3.29102l-30.8135 30.8135c-7.39355 7.39258 -19.0498 8.2334 -27.4238 1.99121 c-8.91895 -6.70801 -11.0576 -19.2139 -4.88281 -28.5137zM384.582 131.491c15.417 0 27.9268 -12.5107 27.9268 -27.9277v-107.055c0 -33.3838 -27.125 -60.5088 -60.5088 -60.5088h-87.4121c-10.9512 0 -21.0654 5.42578 -27.1455 14.5469l-89.9307 134.896 c-8.90527 13.4111 -5.82227 31.4375 7.05371 41.1221c12.0938 9.01562 28.9229 7.80176 39.5859 -2.86133l22.8672 -22.8672v133.054c0 15.417 12.5098 27.9277 27.9268 27.9277s27.9277 -12.5107 27.9277 -27.9277v-62.9697 c4.94141 4.42383 11.4668 7.11523 18.6182 7.11523c15.417 0 27.9268 -12.5098 27.9268 -27.9268v-7.11621c4.94238 4.4248 11.4678 7.11621 18.6182 7.11621c14.7031 0 26.7627 -11.3789 27.8477 -25.8057c4.95117 4.4668 11.5088 7.1875 18.6982 7.1875z"/>
    <glyph glyph-name="sms_uitbreiding" unicode="" d="M391.264 150.118h18.6182v-130.323c0 -20.5938 -16.6416 -37.2354 -37.2354 -37.2354h-223.411c-20.5938 0 -37.2354 16.6416 -37.2354 37.2354v390.97c0 20.5938 16.6416 37.2354 37.2354 37.2354h223.411c20.5938 0 37.2354 -16.6416 37.2354 -37.2354v-27.9258 h-18.6182v27.9258c0 10.3115 -8.30566 18.6182 -18.6172 18.6182h-223.411c-10.3115 0 -18.6182 -8.30664 -18.6182 -18.6182v-390.97c0 -10.3115 8.30664 -18.6172 18.6182 -18.6172h223.411c10.3115 0 18.6172 8.30566 18.6172 18.6172v130.323zM224 390.682v9.31836 h74.4707v-9.31836h-74.4707zM260.94 29.1035c-15.4229 0 -27.9258 12.5039 -27.9258 27.9268c0 15.4238 12.5029 27.9268 27.9258 27.9268c15.4238 0 27.9268 -12.5029 27.9268 -27.9268c0 -15.4229 -12.5029 -27.9268 -27.9268 -27.9268zM260.94 38.4131 c10.2822 0 18.6182 8.33496 18.6182 18.6172s-8.33594 18.6182 -18.6182 18.6182s-18.6172 -8.33594 -18.6172 -18.6182s8.33496 -18.6172 18.6172 -18.6172zM476.905 336.294v0h-171.282c-9.21582 0 -16.7559 -7.44629 -16.7559 -16.7559v-96.8115 c0 -9.21484 7.44727 -16.7549 16.7559 -16.7549h29.7881v-45.4277l68.6992 45.4277h72.7949c9.21582 0 16.7559 7.44629 16.7559 16.7549v96.8115c0 9.21582 -7.44727 16.7559 -16.7559 16.7559zM476.905 345.604v0c14.335 0 26.0645 -11.7295 26.0645 -26.0654v-96.8115 c0 -14.335 -11.6357 -26.0645 -26.0645 -26.0645h-70.0029l-66.3711 -43.8438c-1.48926 -1.02441 -3.35156 -1.58301 -5.12012 -1.58301c-1.48926 0 -2.97852 0.37207 -4.375 1.11719c-3.07227 1.58203 -4.93359 4.74707 -4.93359 8.19141v36.1182h-20.4795 c-14.3359 0 -26.0645 11.6367 -26.0645 26.0645v96.8115c0 14.3359 11.6357 26.0654 26.0645 26.0654h171.282z"/>
    <glyph glyph-name="session" unicode="" d="M497.608 -5.37598c-3.8291 -22.9395 -21.2812 -40.4033 -44.2324 -44.2217c-66.3486 -11.0635 -176.93 -11.0635 -199.034 -11.0635c-22.1279 0 -132.697 0 -199.046 11.0635c-22.9512 3.81836 -40.4141 21.2822 -44.2324 44.2217 c-11.0635 66.3486 -11.0635 176.93 -11.0635 199.046s0 132.696 11.0635 199.045c3.81836 22.9404 21.2812 40.4033 44.2324 44.2217c66.3486 11.0635 176.918 11.0635 199.046 11.0635c22.1045 0 132.686 0 199.034 -11.0635 c22.9512 -3.81836 40.4033 -21.2812 44.2324 -44.2217c11.0527 -66.3486 11.0527 -176.929 11.0527 -199.045c0 -66.3818 0 -132.697 -11.0527 -199.046zM255.2 332.849c-14.7695 0 -26.7432 -11.9727 -26.7432 -26.7422v-117.167 c0 -14.7695 11.9736 -26.7432 26.7432 -26.7432s26.7422 11.9736 26.7422 26.7432v117.167c0 14.7695 -11.9727 26.7422 -26.7422 26.7422zM255.404 126.539c-19.9824 0 -31.4043 -11.1729 -31.4043 -31.583c0 -17.3369 10.6035 -30.8174 30.9961 -30.8174 c19.9834 0 31.4043 10.7822 31.4043 30.8174c0 17.7148 -10.6035 31.583 -30.9961 31.583zM255.2 332.849c-14.7695 0 -26.7432 -11.9727 -26.7432 -26.7422v-117.167c0 -14.7695 11.9736 -26.7432 26.7432 -26.7432s26.7422 11.9736 26.7422 26.7432v117.167 c0 14.7695 -11.9727 26.7422 -26.7422 26.7422zM255.404 126.539c-19.9824 0 -31.4043 -11.1729 -31.4043 -31.583c0 -17.3369 10.6035 -30.8174 30.9961 -30.8174c19.9834 0 31.4043 10.7822 31.4043 30.8174c0 17.7148 -10.6035 31.583 -30.9961 31.583z"/>
    <glyph glyph-name="3945-externe-link-24px" unicode="" d="M205.589 448c0.129883 0.00292969 0.339844 0.00488281 0.469727 0.00488281c13.3066 0 24.1064 -10.7998 24.1064 -24.1074v-0.0683594c0 -13.1201 -10.4961 -23.8936 -23.6152 -24.1279c-61.0781 -1.19434 -110.87 -4.65039 -143.062 -10.0264 c-2.24023 -0.338867 -4.33301 -2.43262 -4.67188 -4.67188c-6.7627 -40.5332 -10.4961 -108.907 -10.4961 -192.533c0 -83.6699 3.7334 -152.064 10.4961 -192.555c0.425781 -2.4541 2.19727 -4.22461 4.62891 -4.62988c40.5332 -6.7627 108.928 -10.5176 192.555 -10.5176 c83.6689 0 152.043 3.75488 192.555 10.5176c2.24609 0.321289 4.3291 2.40527 4.65039 4.65039c4.94922 29.6328 8.27734 74.1982 9.68555 128.747c0.354492 12.9707 11.1738 23.5127 24.1494 23.5303c13.5684 0 24.5117 -11.1143 24.1494 -24.6826 c-1.13086 -42.709 -3.83984 -96.6396 -10.3252 -135.466c-3.4541 -21.0459 -23.333 -40.9541 -44.374 -44.4375c-66.7725 -11.1572 -178.218 -11.1572 -200.49 -11.1572s-133.632 0 -200.405 11.1572c-21.0586 3.46191 -40.9766 23.3604 -44.459 44.416 c-11.1357 66.7734 -11.1357 178.133 -11.1357 200.427c0 22.2715 0 133.632 11.1357 200.405c3.45312 21.0342 23.3232 40.9326 44.3525 44.416c43.4131 7.2959 105.706 9.8125 150.101 10.709zM510.293 432.64c1.06738 -2.70898 1.70703 -5.67383 1.70703 -8.81055 v-161.066c0 -13.3359 -10.8232 -24.1602 -24.1602 -24.1602c-13.3359 0 -24.1602 10.8242 -24.1602 24.1602v102.784l-184.213 -184.256c-3.90137 -3.9209 -11.5566 -7.10352 -17.0879 -7.10352s-13.1865 3.18262 -17.0879 7.10352 c-3.90527 3.9043 -7.07422 11.5547 -7.07422 17.0771s3.16895 13.1729 7.07422 17.0771l184.234 184.234h-102.741c-12.9463 0.384766 -23.4531 11.209 -23.4531 24.1602c0 12.9521 10.5068 23.7754 23.4531 24.1602h161.066c3.11523 0 6.08008 -0.639648 8.81055 -1.70703 l0.363281 -0.12793c5.97266 -2.45312 10.709 -7.18945 13.1621 -13.1621l0.106445 -0.341797v-0.0214844z"/>
    <glyph glyph-name="midden" unicode="" d="M344.275 -46.3447v0c14.6016 0 26.4834 11.8818 26.4834 26.4824v61.793h-229.518v-61.793c0 -14.6006 11.8818 -26.4824 26.4834 -26.4824h176.551zM370.759 59.5859v52.9658h17.6553v-132.414c0 -24.3281 -19.8096 -44.1377 -44.1387 -44.1377h-176.551 c-24.3291 0 -44.1387 19.8096 -44.1387 44.1377v423.725c0 24.3281 19.8096 44.1377 44.1387 44.1377h176.551c24.3291 0 44.1387 -19.8096 44.1387 -44.1377v-26.4834h-17.6553v26.4834c0 14.6006 -11.8818 26.4824 -26.4834 26.4824h-176.551 c-14.6016 0 -26.4834 -11.8818 -26.4834 -26.4824v-344.276h229.518zM220.697 -11.0332v17.6641h70.6055v-17.6641h-70.6055zM238.336 395.033v17.6641h35.3281v-17.6641h-35.3281zM485.518 164.034v168.89c0 5.04883 -3.95508 9.14551 -8.82812 9.14551h-194.207 c-4.87207 0 -8.82715 -4.09668 -8.82715 -9.14551v-211.191c0 -5.61426 4.11328 -7.85645 5.38477 -8.42188c1.53613 -0.670898 5.52637 -1.87109 9.28613 1.57129l43.6973 40.0068h144.666c4.87305 0 8.82812 4.11426 8.82812 9.14551zM476.689 359.725v0 c14.6006 0 26.4834 -12.0234 26.4834 -26.8008v-168.89c0 -14.7773 -11.8828 -26.8008 -26.4834 -26.8008h-137.816l-38.6113 -35.3633c-5.01465 -4.60742 -11.2822 -6.99121 -17.6904 -6.99121c-3.56641 0 -7.18555 0.741211 -10.6465 2.27734 c-9.81641 4.3252 -15.9248 13.7363 -15.9248 24.5762v211.191c0 14.7773 11.8818 26.8008 26.4824 26.8008h194.207z"/>
    <glyph glyph-name="bottom" unicode="" d="M497.698 337.698c19.0693 -19.0693 19.0693 -49.9873 0 -69.0566l-207.17 -207.17c-19.0693 -19.0693 -49.9873 -19.0693 -69.0566 0l-207.17 207.17c-19.0693 19.0693 -19.0693 49.9873 0 69.0566s49.9873 19.0693 69.0566 0l172.642 -172.642l172.642 172.642 c19.0693 19.0693 49.9873 19.0693 69.0566 0zM0 -64v512h512v-512h-512z"/>
    <glyph glyph-name="top" unicode="" d="M14.3018 61.4717c-19.0693 19.0693 -19.0693 49.9873 0 69.0566l207.17 207.17c19.0693 19.0693 49.9873 19.0693 69.0566 0l207.17 -207.17c19.0693 -19.0693 19.0693 -49.9873 0 -69.0566s-49.9873 -19.0693 -69.0566 0l-172.642 172.642l-172.642 -172.642 c-19.0693 -19.0693 -49.9873 -19.0693 -69.0566 0zM0 -64v512h512v-512h-512z"/>
    <glyph glyph-name="2057-online-veiligheid" unicode="" d="M441.224 213.096c10.208 0 18.4805 -8.27148 18.4727 -18.4795v-224.88c0 -8.98438 -6.45605 -16.6406 -15.2959 -18.1924c-29.4561 -5.20801 -99.0889 -15.5439 -187.904 -15.5439c-88.8164 0 -158.448 10.3359 -187.904 15.5439 c-8.84766 1.55957 -15.2959 9.21582 -15.2959 18.1924v224.88c0 10.208 8.27246 18.4795 18.4717 18.4795h55.2803c0.192383 0.520508 0.616211 2.42383 -2.31152 3.36035c-2.00879 0.639648 -27.6562 5.65625 -43.7363 8.78418v43.2715 c0 96.7686 78.7275 175.496 175.496 175.496c96.7676 0 175.496 -78.7275 175.496 -175.496v-55.416h9.23145zM154.896 268.504v-55.416h249.239c0.192383 0.520508 0.624023 2.42383 -2.31152 3.36035c-2 0.639648 -27.6562 5.65527 -43.7285 8.78418v43.2715 c0 56.0244 -45.5762 101.6 -101.6 101.6c-56.0244 0 -101.6 -45.5752 -101.6 -101.6zM274.968 68.3438c12.0566 6.57617 20.3281 19.208 20.3281 33.9121c0 21.4238 -17.3682 38.792 -38.7998 38.792c-21.4238 0 -38.792 -17.3682 -38.792 -38.792 c0 -14.7041 8.27148 -27.3359 20.3203 -33.9121v-58.4561h36.9434v58.4561z"/>
    <glyph glyph-name="3941-delta-links-24px" unicode="" d="M121.6 -44.7998v0c-21.333 21.333 -29.8662 49.0664 -6.39941 70.3994l164.267 164.267l-166.4 166.4c-21.333 21.333 -14.9326 49.0664 6.40039 70.4004v0c21.333 21.333 49.0664 29.8662 70.3994 6.39941l204.801 -204.8c21.333 -21.333 21.333 -55.4668 0 -76.7998 l-202.667 -202.667c-21.333 -21.333 -49.0664 -14.9336 -70.4004 6.40039z"/>
    <glyph glyph-name="next" unicode="" d="M-357.651 9.5791l1.02832 -1.0293c11.4004 -11.3994 29.8701 -11.3994 41.2578 0l162.815 162.815c11.3994 11.4004 11.3994 29.8691 0 41.2695l-162.815 162.815c-11.3877 11.3994 -29.8574 11.3994 -41.2578 0l-1.02832 -1.0293 c-11.3994 -11.3994 -11.3994 -29.8691 0 -41.2686l141.152 -141.152l-141.152 -141.152c-11.3994 -11.3994 -11.3994 -29.8691 0 -41.2686z"/>
    <glyph glyph-name="test" unicode="" d="M496 100.307v181.678c0 4.54199 -3.59961 8.25781 -8 8.25781h-464c-4.40039 0 -8 -3.71582 -8 -8.25781v-181.678c0 -4.54199 3.59961 -8.25781 8 -8.25781h464c4.40039 0 8 3.71582 8 8.25781zM488 306.759v0c13.2324 0 24 -11.1152 24 -24.7744v-181.678 c0 -13.6582 -10.7676 -24.7734 -24 -24.7734h-464c-13.2324 0 -24 11.1152 -24 24.7734v181.678c0 13.6592 10.7676 24.7744 24 24.7744h464zM121.933 214.502l-14.6172 -15.1035h20.6846v-16.5117h-20.6846l14.6172 -15.1045l-11.3154 -11.6738l-14.6172 15.1045v-21.3506 h-16v21.3506l-14.6172 -15.1045l-11.3154 11.6738l14.6172 15.1045h-20.6846v16.5117h20.6846l-14.6172 15.1035l11.3154 11.6738l14.6172 -15.1035v21.376h16v-21.376l14.6172 15.1035zM233.933 214.502l-14.6172 -15.1035h20.6846v-16.5117h-20.6846l14.6172 -15.1045 l-11.3154 -11.6738l-14.6172 15.1045v-21.3506h-16v21.3506l-14.6172 -15.1045l-11.3154 11.6738l14.6172 15.1045h-20.6846v16.5117h20.6846l-14.6172 15.1035l11.3154 11.6738l14.6172 -15.1035v21.376h16v-21.376l14.6172 15.1035zM345.933 214.502l-14.6172 -15.1035 h20.6846v-16.5117h-20.6846l14.6172 -15.1045l-11.3154 -11.6738l-14.6172 15.1045v-21.3506h-16v21.3506l-14.6172 -15.1045l-11.3154 11.6738l14.6172 15.1045h-20.6846v16.5117h20.6846l-14.6172 15.1035l11.3154 11.6738l14.6172 -15.1035v21.376h16v-21.376 l14.6172 15.1035zM457.933 214.502l-14.6172 -15.1035h20.6846v-16.5117h-20.6846l14.6172 -15.1045l-11.3154 -11.6738l-14.6172 15.1045v-21.3506h-16v21.3506l-14.6172 -15.1045l-11.3154 11.6738l14.6172 15.1045h-20.6846v16.5117h20.6846l-14.6172 15.1035 l11.3154 11.6738l14.6172 -15.1035v21.376h16v-21.376l14.6172 15.1035z"/>
    <glyph glyph-name="prev" unicode="" d="M357.651 9.5791l-1.02832 -1.0293c-11.4004 -11.3994 -29.8701 -11.3994 -41.2578 0l-162.815 162.815c-11.3994 11.4004 -11.3994 29.8691 0 41.2695l162.815 162.815c11.3877 11.3994 29.8574 11.3994 41.2578 0l1.02832 -1.0293 c11.3994 -11.3994 11.3994 -29.8691 0 -41.2686l-141.152 -141.152l141.152 -141.152c11.3994 -11.3994 11.3994 -29.8691 0 -41.2686z"/>
    <glyph glyph-name="info_icon" unicode="" d="M500.875 392.353c11.125 -66.7842 11.125 -133.535 11.125 -200.353c0 -22.2617 0 -133.568 -11.125 -200.353c-3.85449 -23.0898 -21.4209 -40.668 -44.5225 -44.5107c-66.7842 -11.1367 -178.091 -11.1367 -200.342 -11.1367c-22.2725 0 -133.567 0 -200.352 11.1367 c-23.1016 3.84277 -40.6797 21.4209 -44.5225 44.5107c-11.1367 66.7842 -11.1367 178.091 -11.1367 200.353s0 133.568 11.1367 200.353c3.84277 23.0898 21.4209 40.668 44.5225 44.5107c66.7842 11.1367 178.079 11.1367 200.352 11.1367 c22.251 0 133.558 0 200.342 -11.1367c23.1016 -3.84277 40.668 -21.4209 44.5225 -44.5107zM256 272c17.6729 0 32 14.3271 32 32s-14.3271 32 -32 32s-32 -14.3271 -32 -32s14.3271 -32 32 -32zM256 224c-17.6729 0 -32 -14.3271 -32 -32v-128 c0 -17.6729 14.3271 -32 32 -32s32 14.3271 32 32v128c0 17.6729 -14.3271 32 -32 32z"/>
    <glyph glyph-name="1008-oog" unicode="" d="M473.066 221.392c8.17871 -13.0898 8.17871 -29.6934 0 -42.7822c-26.1611 -41.873 -95.8965 -130.609 -217.066 -130.609s-190.905 88.7363 -217.066 130.609c-8.17871 13.0898 -8.17871 29.6924 0 42.7822c26.1611 41.8721 95.8965 130.608 217.066 130.608 s190.905 -88.7363 217.066 -130.608zM256 280.8c-26.9521 0 -48.7998 -21.8477 -48.7998 -48.7998s21.8477 -48.7998 48.7998 -48.7998s48.7998 21.8486 48.7998 48.7998s-21.8477 48.7998 -48.7998 48.7998zM256 88c123.041 0 177.725 112 177.725 112 s-41.9619 85.9258 -135.063 107.249c-0.0292969 -0.354492 -0.150391 -1.95508 1.31348 -2.72949c35.0254 -18.5195 70.6074 -42.4229 67.707 -81.0312c-4.34961 -57.8799 -52.6895 -103.488 -111.682 -103.488c-66.1953 0 -118.977 57.4258 -111.246 125.176 c1.57324 13.7881 5.80957 26.834 12.0537 38.709c-53.7129 -33.1758 -78.5322 -83.8848 -78.5322 -83.8848s54.6836 -112 177.725 -112z"/>
    <glyph glyph-name="logout" unicode="" d="M256.008 -64c-76.0801 0 -140.016 2.89648 -184.912 8.36816c-32.8955 4.01562 -58.6875 29.8076 -62.7041 62.7197c-5.4873 44.9922 -8.38379 108.912 -8.38379 184.896c0 75.9678 2.89648 139.903 8.38379 184.912c4 32.9111 29.792 58.7031 62.7041 62.7197 c44.96 5.47168 108.912 8.38379 184.912 8.38379c11.04 0 21.7598 -0.0800781 32.2881 -0.208008c13.248 -0.143555 23.8564 -11.0244 23.7119 -24.2725c-0.160156 -13.168 -10.8799 -23.7275 -24 -23.7275h-0.303711c-10.3359 0.12793 -20.8477 0.208008 -31.6963 0.208008 c-74.0957 0 -136.032 -2.78418 -179.104 -8.04785c-10.96 -1.32812 -19.5361 -9.9043 -20.8643 -20.8799c-5.26367 -43.0879 -8.03223 -105.024 -8.03223 -179.088c0 -74.0801 2.76855 -136 8.0166 -179.072c1.34375 -10.96 9.93555 -19.5518 20.8799 -20.8799 c43.0078 -5.24805 104.928 -8.03223 179.104 -8.03223c10.8486 0 21.3604 0.0800781 31.6963 0.208008h0.303711c13.1201 0 23.8398 -10.5596 24 -23.7275c0.144531 -13.248 -10.4639 -24.1289 -23.7119 -24.2725c-10.5283 -0.12793 -21.248 -0.208008 -32.2881 -0.208008z M509.984 182.423c-1.16797 -2.67285 -2.81641 -5.2002 -5.00879 -7.39258l-113.136 -113.136c-9.35938 -9.37598 -24.5596 -9.37598 -33.9355 0c-9.37598 9.36035 -9.37598 24.5762 0 33.9355l72.1602 72.1768h-258.832c-6.62402 0 -12.624 2.6875 -16.9766 7.02344 c-4.33594 4.33594 -7.00781 10.3359 -7.00781 16.9766c0 13.248 10.7363 24 23.9844 24h258.832l-72.1602 72.1436c-9.37598 9.37598 -9.37598 24.5918 0 33.9521c9.35938 9.35938 24.5762 9.35938 33.9355 0l113.136 -113.136 c2.19238 -2.20801 3.82422 -4.73633 5.00879 -7.4082c0.03125 -0.112305 0.111328 -0.192383 0.15918 -0.320312c2.48047 -5.9043 2.48047 -12.5762 0 -18.4795c-0.0478516 -0.112305 -0.12793 -0.224609 -0.15918 -0.335938z"/>
    <glyph glyph-name="3933-telefoon-24px" unicode="" d="M384 407.467c12.7998 0 21.333 -10.667 21.333 -23.4668v-384c0 -10.667 -8.5332 -21.333 -21.333 -23.4668c-85.333 -10.667 -170.667 -10.667 -256 0c-12.7998 0 -21.333 10.667 -21.333 23.4668v384c0 12.7998 8.5332 23.4668 21.333 23.4668 c85.333 10.667 170.667 10.667 256 0zM298.667 0v21.333h-85.334v-21.333h85.334zM362.667 64v298.667h-213.334v-298.667h213.334z"/>
    <glyph glyph-name="info" unicode="" d="M497.608 -5.37598c-3.8291 -22.9395 -21.2812 -40.4033 -44.2324 -44.2217c-66.3486 -11.0635 -176.93 -11.0635 -199.034 -11.0635c-22.1279 0 -132.697 0 -199.046 11.0635c-22.9512 3.81836 -40.4141 21.2822 -44.2324 44.2217 c-11.0635 66.3486 -11.0635 176.93 -11.0635 199.046s0 132.696 11.0635 199.045c3.81836 22.9404 21.2812 40.4033 44.2324 44.2217c66.3486 11.0635 176.918 11.0635 199.046 11.0635c22.1045 0 132.686 0 199.034 -11.0635 c22.9512 -3.81836 40.4033 -21.2812 44.2324 -44.2217c11.0527 -66.3486 11.0527 -176.929 11.0527 -199.045c0 -66.3818 0 -132.697 -11.0527 -199.046zM255.2 332.849c-14.7695 0 -26.7432 -11.9727 -26.7432 -26.7422v-117.167 c0 -14.7695 11.9736 -26.7432 26.7432 -26.7432s26.7422 11.9736 26.7422 26.7432v117.167c0 14.7695 -11.9727 26.7422 -26.7422 26.7422zM255.404 126.539c-19.9824 0 -31.4043 -11.1729 -31.4043 -31.583c0 -17.3369 10.6035 -30.8174 30.9961 -30.8174 c19.9834 0 31.4043 10.7822 31.4043 30.8174c0 17.7148 -10.6035 31.583 -30.9961 31.583zM255.2 332.849c-14.7695 0 -26.7432 -11.9727 -26.7432 -26.7422v-117.167c0 -14.7695 11.9736 -26.7432 26.7432 -26.7432s26.7422 11.9736 26.7422 26.7432v117.167 c0 14.7695 -11.9727 26.7422 -26.7422 26.7422zM255.404 126.539c-19.9824 0 -31.4043 -11.1729 -31.4043 -31.583c0 -17.3369 10.6035 -30.8174 30.9961 -30.8174c19.9834 0 31.4043 10.7822 31.4043 30.8174c0 17.7148 -10.6035 31.583 -30.9961 31.583z"/>
    <glyph glyph-name="account" unicode="" d="M496 100.307v181.678c0 4.54199 -3.59961 8.25781 -8 8.25781h-464c-4.40039 0 -8 -3.71582 -8 -8.25781v-181.678c0 -4.54199 3.59961 -8.25781 8 -8.25781h464c4.40039 0 8 3.71582 8 8.25781zM488 306.759v0c13.2324 0 24 -11.1152 24 -24.7744v-181.678 c0 -13.6582 -10.7676 -24.7734 -24 -24.7734h-464c-13.2324 0 -24 11.1152 -24 24.7734v181.678c0 13.6592 10.7676 24.7744 24 24.7744h464zM121.933 214.502l-14.6172 -15.1035h20.6846v-16.5117h-20.6846l14.6172 -15.1045l-11.3154 -11.6738l-14.6172 15.1045v-21.3506 h-16v21.3506l-14.6172 -15.1045l-11.3154 11.6738l14.6172 15.1045h-20.6846v16.5117h20.6846l-14.6172 15.1035l11.3154 11.6738l14.6172 -15.1035v21.376h16v-21.376l14.6172 15.1035zM233.933 214.502l-14.6172 -15.1035h20.6846v-16.5117h-20.6846l14.6172 -15.1045 l-11.3154 -11.6738l-14.6172 15.1045v-21.3506h-16v21.3506l-14.6172 -15.1045l-11.3154 11.6738l14.6172 15.1045h-20.6846v16.5117h20.6846l-14.6172 15.1035l11.3154 11.6738l14.6172 -15.1035v21.376h16v-21.376l14.6172 15.1035zM345.933 214.502l-14.6172 -15.1035 h20.6846v-16.5117h-20.6846l14.6172 -15.1045l-11.3154 -11.6738l-14.6172 15.1045v-21.3506h-16v21.3506l-14.6172 -15.1045l-11.3154 11.6738l14.6172 15.1045h-20.6846v16.5117h20.6846l-14.6172 15.1035l11.3154 11.6738l14.6172 -15.1035v21.376h16v-21.376 l14.6172 15.1035zM457.933 214.502l-14.6172 -15.1035h20.6846v-16.5117h-20.6846l14.6172 -15.1045l-11.3154 -11.6738l-14.6172 15.1045v-21.3506h-16v21.3506l-14.6172 -15.1045l-11.3154 11.6738l14.6172 15.1045h-20.6846v16.5117h20.6846l-14.6172 15.1035 l11.3154 11.6738l14.6172 -15.1035v21.376h16v-21.376l14.6172 15.1035z"/>
    <glyph glyph-name="basis" unicode="" d="M141.541 244.312c-12.041 0 -21.8018 9.6084 -21.8018 21.4609s9.76074 21.4609 21.8018 21.4609s21.8018 -9.6084 21.8018 -21.4609s-9.76074 -21.4609 -21.8018 -21.4609zM217.847 244.312c-12.04 0 -21.8018 9.6084 -21.8018 21.4609s9.76172 21.4609 21.8018 21.4609 c12.041 0 21.8018 -9.6084 21.8018 -21.4609s-9.76074 -21.4609 -21.8018 -21.4609zM294.153 244.312c-12.041 0 -21.8018 9.6084 -21.8018 21.4609s9.76074 21.4609 21.8018 21.4609c12.04 0 21.8018 -9.6084 21.8018 -21.4609s-9.76172 -21.4609 -21.8018 -21.4609z M370.459 244.312c-12.041 0 -21.8018 9.6084 -21.8018 21.4609s9.76074 21.4609 21.8018 21.4609s21.8018 -9.6084 21.8018 -21.4609s-9.76074 -21.4609 -21.8018 -21.4609zM97.9375 147.736v-21.4609h-54.5039c-23.9844 0 -43.4336 19.1455 -43.4336 42.9219v203.881 c0 23.7773 19.4492 42.9219 43.4336 42.9219h425.133c23.9844 0 43.4336 -19.1445 43.4336 -42.9219v-203.881c0 -23.7764 -19.4492 -42.9219 -43.4336 -42.9219h-54.5039v21.4609h54.5039c12.207 0 21.9727 9.61328 21.9727 21.4609v203.881 c0 11.8477 -9.76562 21.4609 -21.9727 21.4609h-425.133c-12.207 0 -21.9727 -9.61328 -21.9727 -21.4609v-203.881c0 -11.8477 9.76562 -21.4609 21.9727 -21.4609h54.5039zM256 -24.2871c-63.332 0 -114.709 50.5742 -114.709 113.006s51.377 113.006 114.709 113.006 s114.709 -50.5742 114.709 -113.006s-51.377 -113.006 -114.709 -113.006zM256 -12.8857c57.0752 0 103.308 45.5098 103.308 101.604s-46.2324 101.604 -103.308 101.604s-103.308 -45.5098 -103.308 -101.604s46.2324 -101.604 103.308 -101.604zM301.221 119.765 c2.33008 2.11621 5.93555 1.94336 8.05273 -0.386719s1.94434 -5.93555 -0.385742 -8.05273l-62.2441 -56.5498c-2.07617 -1.88574 -5.21484 -1.98145 -7.40234 -0.226562l-35.4277 28.4365c-2.45508 1.9707 -2.84766 5.55859 -0.876953 8.01367 s5.55859 2.84863 8.01367 0.87793l31.6309 -25.3887z"/>
    <glyph glyph-name="error" unicode="" d="M497.608 -5.37598c-3.8291 -22.9395 -21.2812 -40.4033 -44.2324 -44.2217c-66.3486 -11.0635 -176.93 -11.0635 -199.034 -11.0635c-22.1279 0 -132.697 0 -199.046 11.0635c-22.9512 3.81836 -40.4141 21.2822 -44.2324 44.2217 c-11.0635 66.3486 -11.0635 176.93 -11.0635 199.046s0 132.696 11.0635 199.045c3.81836 22.9404 21.2812 40.4033 44.2324 44.2217c66.3486 11.0635 176.918 11.0635 199.046 11.0635c22.1045 0 132.686 0 199.034 -11.0635 c22.9512 -3.81836 40.4033 -21.2812 44.2324 -44.2217c11.0527 -66.3486 11.0527 -176.929 11.0527 -199.045c0 -66.3818 0 -132.697 -11.0527 -199.046zM255.2 332.849c-14.7695 0 -26.7432 -11.9727 -26.7432 -26.7422v-117.167 c0 -14.7695 11.9736 -26.7432 26.7432 -26.7432s26.7422 11.9736 26.7422 26.7432v117.167c0 14.7695 -11.9727 26.7422 -26.7422 26.7422zM255.404 126.539c-19.9824 0 -31.4043 -11.1729 -31.4043 -31.583c0 -17.3369 10.6035 -30.8174 30.9961 -30.8174 c19.9834 0 31.4043 10.7822 31.4043 30.8174c0 17.7148 -10.6035 31.583 -30.9961 31.583zM255.2 332.849c-14.7695 0 -26.7432 -11.9727 -26.7432 -26.7422v-117.167c0 -14.7695 11.9736 -26.7432 26.7432 -26.7432s26.7422 11.9736 26.7422 26.7432v117.167 c0 14.7695 -11.9727 26.7422 -26.7422 26.7422zM255.404 126.539c-19.9824 0 -31.4043 -11.1729 -31.4043 -31.583c0 -17.3369 10.6035 -30.8174 30.9961 -30.8174c19.9834 0 31.4043 10.7822 31.4043 30.8174c0 17.7148 -10.6035 31.583 -30.9961 31.583z"/>
    <glyph glyph-name="hoog_id_card" unicode="" d="M469.333 37.333c11.8164 0 21.334 9.51758 21.334 21.334v266.666c0 11.8164 -9.51758 21.334 -21.334 21.334h-426.666c-11.8164 0 -21.334 -9.51758 -21.334 -21.334v-266.666c0 -11.8164 9.51758 -21.334 21.334 -21.334h426.666zM469.333 16h-426.666 c-23.5977 0 -42.667 19.0693 -42.667 42.667v266.666c0 23.5977 19.0693 42.667 42.667 42.667h426.666c23.5977 0 42.667 -19.0693 42.667 -42.667v-266.666c0 -23.5977 -19.0693 -42.667 -42.667 -42.667zM154.667 282.667c26.4531 0 48 -21.5469 48 -48 c0 -26.4541 -21.5469 -48 -48 -48c-26.4541 0 -48 21.5459 -48 48c0 26.4531 21.5459 48 48 48zM154.667 272c-20.5869 0 -37.334 -16.7471 -37.334 -37.333c0 -20.5869 16.7471 -37.334 37.334 -37.334c20.5859 0 37.333 16.7471 37.333 37.334 c0 20.5859 -16.7471 37.333 -37.333 37.333zM85.333 101.333h-10.666v10.667c0 44.2256 35.7744 80 80 80s80 -35.7744 80 -80v-10.667h-10.667v10.667c0 38.335 -30.999 69.333 -69.333 69.333c-38.335 0 -69.334 -30.998 -69.334 -69.333v-10.667zM288 250.675v10.6504 h138.675v-10.6504h-138.675zM288 165.325v10.6748h138.675v-10.6748h-138.675zM288 208v10.6748h117.325v-10.6748h-117.325zM288 122.675v10.6504h117.325v-10.6504h-117.325z"/>
    <glyph glyph-name="hoog_driving_licence" unicode="" d="M469.333 37.333c11.8164 0 21.334 9.51758 21.334 21.334v266.666c0 11.8164 -9.51758 21.334 -21.334 21.334h-426.666c-11.8164 0 -21.334 -9.51758 -21.334 -21.334v-266.666c0 -11.8164 9.51758 -21.334 21.334 -21.334h426.666zM469.333 16h-426.666 c-23.5977 0 -42.667 19.0693 -42.667 42.667v266.666c0 23.5977 19.0693 42.667 42.667 42.667h426.666c23.5977 0 42.667 -19.0693 42.667 -42.667v-266.666c0 -23.5977 -19.0693 -42.667 -42.667 -42.667zM154.667 282.667c26.4531 0 48 -21.5469 48 -48 c0 -26.4541 -21.5469 -48 -48 -48c-26.4541 0 -48 21.5459 -48 48c0 26.4531 21.5459 48 48 48zM154.667 272c-20.5869 0 -37.334 -16.7471 -37.334 -37.333c0 -20.5869 16.7471 -37.334 37.334 -37.334c20.5859 0 37.333 16.7471 37.333 37.334 c0 20.5859 -16.7471 37.333 -37.333 37.333zM85.333 101.333h-10.666v10.667c0 44.2256 35.7744 80 80 80s80 -35.7744 80 -80v-10.667h-10.667v10.667c0 38.335 -30.999 69.333 -69.333 69.333c-38.335 0 -69.334 -30.998 -69.334 -69.333v-10.667zM288 250.675v10.6504 h138.675v-10.6504h-138.675zM288 165.325v10.6748h138.675v-10.6748h-138.675zM288 208v10.6748h117.325v-10.6748h-117.325zM288 122.675v10.6504h117.325v-10.6504h-117.325z"/>
  </font>
</defs>
</svg>
